<svg width="35" height="36" viewBox="0 0 35 36" fill="none" xmlns="http://www.w3.org/2000/svg">
<circle cx="17.5" cy="18" r="17.5" fill="#E72D2D"/>
<g clip-path="url(#clip0)">
<path d="M26.4093 16.7272C26.7606 16.7272 27.0605 16.8515 27.3091 17.1001C27.5577 17.3486 27.682 17.6486 27.682 17.9999C27.682 18.3512 27.5577 18.6512 27.3091 18.8998C27.0605 19.1483 26.7606 19.2726 26.4093 19.2726H26.2601L25.1167 25.855C25.0636 26.1599 24.9178 26.4118 24.6792 26.6107C24.4405 26.8096 24.1687 26.909 23.8638 26.909H11.1365C10.8316 26.909 10.5598 26.8096 10.3212 26.6107C10.0826 26.4118 9.93673 26.1599 9.8837 25.855L8.74023 19.2726H8.59109C8.23976 19.2726 7.93981 19.1483 7.69123 18.8998C7.44265 18.6512 7.31836 18.3512 7.31836 17.9999C7.31836 17.6486 7.44265 17.3486 7.69123 17.1001C7.93981 16.8515 8.23976 16.7272 8.59109 16.7272H26.4093ZM12.1408 24.6817C12.3132 24.6685 12.4573 24.5939 12.5733 24.458C12.6893 24.3221 12.7407 24.168 12.7275 23.9956L12.4093 19.8593C12.396 19.6869 12.3214 19.5428 12.1855 19.4268C12.0497 19.3108 11.8955 19.2594 11.7232 19.2726C11.5508 19.2859 11.4067 19.3605 11.2907 19.4964C11.1747 19.6322 11.1233 19.7864 11.1365 19.9587L11.4547 24.0951C11.468 24.2608 11.5359 24.4 11.6586 24.5127C11.7812 24.6254 11.9254 24.6817 12.0911 24.6817H12.1408ZM16.2275 24.0454V19.909C16.2275 19.7367 16.1645 19.5875 16.0385 19.4616C15.9126 19.3356 15.7634 19.2726 15.5911 19.2726C15.4187 19.2726 15.2696 19.3356 15.1436 19.4616C15.0177 19.5875 14.9547 19.7367 14.9547 19.909V24.0454C14.9547 24.2177 15.0177 24.3669 15.1436 24.4928C15.2696 24.6188 15.4187 24.6817 15.5911 24.6817C15.7634 24.6817 15.9126 24.6188 16.0385 24.4928C16.1645 24.3669 16.2275 24.2177 16.2275 24.0454ZM20.0456 24.0454V19.909C20.0456 19.7367 19.9827 19.5875 19.8567 19.4616C19.7308 19.3356 19.5816 19.2726 19.4093 19.2726C19.2369 19.2726 19.0878 19.3356 18.9618 19.4616C18.8359 19.5875 18.7729 19.7367 18.7729 19.909V24.0454C18.7729 24.2177 18.8359 24.3669 18.9618 24.4928C19.0878 24.6188 19.2369 24.6817 19.4093 24.6817C19.5816 24.6817 19.7308 24.6188 19.8567 24.4928C19.9827 24.3669 20.0456 24.2177 20.0456 24.0454ZM23.5456 24.0951L23.8638 19.9587C23.8771 19.7864 23.8257 19.6322 23.7097 19.4964C23.5937 19.3605 23.4495 19.2859 23.2772 19.2726C23.1048 19.2594 22.9507 19.3108 22.8148 19.4268C22.6789 19.5428 22.6043 19.6869 22.5911 19.8593L22.2729 23.9956C22.2596 24.168 22.311 24.3221 22.427 24.458C22.543 24.5939 22.6872 24.6685 22.8596 24.6817H22.9093C23.075 24.6817 23.2192 24.6254 23.3418 24.5127C23.4644 24.4 23.5324 24.2608 23.5456 24.0951ZM12.0513 11.9942L11.1266 16.0908H9.8141L10.8184 11.7059C10.9443 11.1225 11.2393 10.6469 11.7033 10.279C12.1673 9.91113 12.6976 9.72718 13.2942 9.72718H14.9547C14.9547 9.55484 15.0177 9.40569 15.1436 9.27974C15.2696 9.15379 15.4187 9.09082 15.5911 9.09082H19.4093C19.5816 9.09082 19.7308 9.15379 19.8567 9.27974C19.9827 9.40569 20.0456 9.55484 20.0456 9.72718H21.7061C22.3027 9.72718 22.833 9.91113 23.2971 10.279C23.7611 10.6469 24.056 11.1225 24.182 11.7059L25.1863 16.0908H23.8738L22.949 11.9942C22.8761 11.7026 22.7253 11.4639 22.4966 11.2783C22.2679 11.0927 22.0044 10.9999 21.7061 10.9999H20.0456C20.0456 11.1723 19.9827 11.3214 19.8567 11.4474C19.7308 11.5733 19.5816 11.6363 19.4093 11.6363H15.5911C15.4187 11.6363 15.2696 11.5733 15.1436 11.4474C15.0177 11.3214 14.9547 11.1723 14.9547 10.9999H13.2942C12.9959 10.9999 12.7324 11.0927 12.5037 11.2783C12.275 11.4639 12.1242 11.7026 12.0513 11.9942Z" fill="white"/>
</g>
<defs>
<clipPath id="clip0">
<rect width="20.3636" height="17.8182" fill="white" transform="translate(7.31836 9.09082)"/>
</clipPath>
</defs>
</svg>
