<svg width="26" height="30" viewBox="0 0 26 30" fill="none" xmlns="http://www.w3.org/2000/svg">
<path d="M24.4583 4.28571H18.2083V2.67857C18.2083 1.96817 17.934 1.28686 17.4456 0.784535C16.9572 0.282206 16.2948 0 15.6042 0H10.3958C9.70516 0 9.04278 0.282206 8.55441 0.784535C8.06603 1.28686 7.79167 1.96817 7.79167 2.67857V4.28571H1.54167C1.2654 4.28571 1.00045 4.3986 0.805097 4.59953C0.609747 4.80046 0.5 5.07298 0.5 5.35714C0.5 5.6413 0.609747 5.91383 0.805097 6.11476C1.00045 6.31569 1.2654 6.42857 1.54167 6.42857H2.64844L3.88542 26.8473C3.97786 28.6453 5.31771 30 7.01042 30H18.9896C20.6908 30 22.0039 28.6754 22.1146 26.8527L23.3516 6.42857H24.4583C24.7346 6.42857 24.9996 6.31569 25.1949 6.11476C25.3903 5.91383 25.5 5.6413 25.5 5.35714C25.5 5.07298 25.3903 4.80046 25.1949 4.59953C24.9996 4.3986 24.7346 4.28571 24.4583 4.28571ZM8.87044 25.7143H8.83333C8.56338 25.7145 8.3039 25.6068 8.10958 25.4141C7.91526 25.2213 7.80128 24.9585 7.79167 24.681L7.27083 9.68103C7.26099 9.39687 7.3613 9.12032 7.54969 8.91223C7.73808 8.70414 7.99912 8.58155 8.27539 8.57143C8.55166 8.56131 8.82052 8.66448 9.02283 8.85825C9.22514 9.05203 9.34432 9.32053 9.35417 9.60469L9.875 24.6047C9.87996 24.7454 9.8579 24.8858 9.81009 25.0177C9.76227 25.1497 9.68964 25.2706 9.59634 25.3737C9.50304 25.4767 9.39091 25.5599 9.26635 25.6183C9.1418 25.6767 9.00726 25.7094 8.87044 25.7143ZM14.0417 24.6429C14.0417 24.927 13.9319 25.1995 13.7366 25.4005C13.5412 25.6014 13.2763 25.7143 13 25.7143C12.7237 25.7143 12.4588 25.6014 12.2634 25.4005C12.0681 25.1995 11.9583 24.927 11.9583 24.6429V9.64286C11.9583 9.3587 12.0681 9.08617 12.2634 8.88524C12.4588 8.68431 12.7237 8.57143 13 8.57143C13.2763 8.57143 13.5412 8.68431 13.7366 8.88524C13.9319 9.08617 14.0417 9.3587 14.0417 9.64286V24.6429ZM16.125 4.28571H9.875V2.67857C9.87421 2.608 9.88715 2.53797 9.91305 2.47261C9.93894 2.40725 9.97728 2.34787 10.0258 2.29796C10.0743 2.24806 10.132 2.20863 10.1956 2.18199C10.2591 2.15535 10.3272 2.14205 10.3958 2.14286H15.6042C15.6728 2.14205 15.7409 2.15535 15.8044 2.18199C15.868 2.20863 15.9257 2.24806 15.9742 2.29796C16.0227 2.34787 16.0611 2.40725 16.087 2.47261C16.1129 2.53797 16.1258 2.608 16.125 2.67857V4.28571ZM18.2083 24.681C18.1987 24.9585 18.0847 25.2213 17.8904 25.4141C17.6961 25.6068 17.4366 25.7145 17.1667 25.7143H17.1289C16.9921 25.7093 16.8577 25.6766 16.7332 25.6181C16.6087 25.5596 16.4967 25.4765 16.4034 25.3734C16.3102 25.2704 16.2376 25.1495 16.1898 25.0176C16.1421 24.8857 16.12 24.7454 16.125 24.6047L16.6458 9.60469C16.6507 9.46398 16.6825 9.32565 16.7393 9.19757C16.7962 9.0695 16.877 8.9542 16.9772 8.85825C17.0773 8.76231 17.1949 8.68759 17.3232 8.63838C17.4514 8.58917 17.5878 8.56642 17.7246 8.57143C17.8614 8.57644 17.9959 8.60912 18.1204 8.66759C18.2449 8.72607 18.357 8.8092 18.4503 8.91223C18.5436 9.01527 18.6162 9.13619 18.6641 9.2681C18.7119 9.40001 18.734 9.54033 18.7292 9.68103L18.2083 24.681Z" fill="#99A4AF" fill-opacity="0.5"/>
</svg>
