<svg width="28" height="28" viewBox="0 0 28 28" fill="none" xmlns="http://www.w3.org/2000/svg">
<path d="M17.2701 4.93848H10.5432C7.44774 4.93848 4.9375 7.44872 4.9375 10.5442V17.271C4.9375 20.3665 7.44774 22.8768 10.5432 22.8768H17.2701C20.3655 22.8768 22.8758 20.3665 22.8758 17.271V10.5442C22.8758 7.44872 20.3655 4.93848 17.2701 4.93848ZM21.1941 17.271C21.1941 19.4349 19.4339 21.195 17.2701 21.195H10.5432C8.37941 21.195 6.61921 19.4349 6.61921 17.271V10.5442C6.61921 8.38039 8.37941 6.62019 10.5432 6.62019H17.2701C19.4339 6.62019 21.1941 8.38039 21.1941 10.5442V17.271Z" fill="white"/>
<path d="M13.9064 9.42285C11.4298 9.42285 9.42188 11.4308 9.42188 13.9074C9.42188 16.384 11.4298 18.392 13.9064 18.392C16.3831 18.392 18.391 16.384 18.391 13.9074C18.391 11.4308 16.3831 9.42285 13.9064 9.42285ZM13.9064 16.7103C12.3615 16.7103 11.1036 15.4524 11.1036 13.9074C11.1036 12.3614 12.3615 11.1046 13.9064 11.1046C15.4514 11.1046 16.7093 12.3614 16.7093 13.9074C16.7093 15.4524 15.4514 16.7103 13.9064 16.7103Z" fill="white"/>
<path d="M18.7275 9.6844C19.0575 9.6844 19.325 9.41686 19.325 9.08683C19.325 8.7568 19.0575 8.48926 18.7275 8.48926C18.3974 8.48926 18.1299 8.7568 18.1299 9.08683C18.1299 9.41686 18.3974 9.6844 18.7275 9.6844Z" fill="white"/>
</svg>
