<svg width="35" height="36" viewBox="0 0 35 36" fill="none" xmlns="http://www.w3.org/2000/svg">
<path fill-rule="evenodd" clip-rule="evenodd" d="M17.4939 0.5C27.1575 0.5 35 8.34253 35 18.0061C35 27.6575 27.1575 35.5 17.4939 35.5C7.83038 35.5 0 27.6575 0 18.0061C0 8.34253 7.83038 0.5 17.4939 0.5Z" fill="#E72D2D"/>
<path d="M25.1475 22.4266C25.111 22.2009 24.9695 22.0079 24.7575 21.8933L21.6217 20.0457L21.5959 20.0313C21.4644 19.9655 21.3192 19.9318 21.1722 19.9329C20.9095 19.9329 20.6586 20.0324 20.4844 20.207L19.5589 21.1329C19.5193 21.1705 19.3903 21.225 19.3511 21.227C19.3404 21.2261 18.2742 21.1493 16.3113 19.1863C14.352 17.2274 14.2689 16.1579 14.2682 16.1579C14.2693 16.1032 14.3231 15.9746 14.3614 15.9348L15.1507 15.1457C15.4287 14.867 15.512 14.405 15.3471 14.0472L13.6041 10.7675C13.4774 10.5067 13.2313 10.3457 12.9583 10.3457C12.7652 10.3457 12.5788 10.4258 12.4331 10.5712L10.2817 12.7178C10.0754 12.923 9.89782 13.2818 9.8591 13.5705C9.84029 13.7085 9.45857 17.0034 13.9758 21.5212C17.8107 25.3557 20.801 25.6536 21.6268 25.6536C21.7273 25.6549 21.8279 25.6497 21.9278 25.6381C22.2156 25.5996 22.5739 25.4224 22.7789 25.217L24.9286 23.0675C25.104 22.8912 25.1841 22.6583 25.1475 22.4266Z" fill="white"/>
</svg>
