<svg width="20" height="12" viewBox="0 0 20 12" fill="none" xmlns="http://www.w3.org/2000/svg">
<path d="M18.7993 1.66391C18.9284 1.24552 18.7993 0.926758 18.1836 0.926758H16.1776C15.6613 0.926758 15.4329 1.19572 15.3038 1.49456C15.3038 1.49456 14.2809 3.99489 12.8311 5.62857C12.3544 6.09676 12.1459 6.24618 11.8877 6.24618C11.7586 6.24618 11.5501 6.09676 11.5501 5.66842V1.66391C11.5501 1.15587 11.4309 0.926758 11.0039 0.926758H7.83608C7.51831 0.926758 7.32963 1.16583 7.32963 1.39495C7.32963 1.8731 8.07441 1.99263 8.12406 3.35736V6.32587C8.12406 6.98333 8.0049 7.10287 7.75664 7.10287C7.08137 7.10287 5.41305 4.58262 4.42994 1.71371C4.23133 1.15587 4.04266 0.926758 3.52627 0.926758H1.5104C0.944361 0.926758 0.825195 1.19572 0.825195 1.49456C0.825195 2.03248 1.5104 4.68223 4.00293 8.18867C5.66132 10.5894 8.0049 11.8844 10.1399 11.8844C11.421 11.8844 11.5799 11.5955 11.5799 11.0974V9.28443C11.5799 8.71662 11.699 8.59709 12.1062 8.59709C12.4041 8.59709 12.9105 8.74651 14.1022 9.89208C15.4726 11.2668 15.6911 11.8844 16.4656 11.8844H18.4716C19.0475 11.8844 19.3355 11.5955 19.1766 11.0277C18.9979 10.4599 18.3425 9.63308 17.4785 8.65686C17.0118 8.10897 16.3067 7.51129 16.0883 7.20248C15.7904 6.82395 15.8797 6.6546 16.0883 6.30595C16.0883 6.30595 18.5411 2.84932 18.7993 1.66391Z" fill="white"/>
</svg>
